HIERARCHY
ROOT Hips
{
 OFFSET 0.000000 0.000000 0.000000
 CHANNELS 6 Xposition Yposition Zposition Yrotation Xrotation Zrotation
 JOINT Chest
 {
  OFFSET 0.000000 9.585900 0.002600
  CHANNELS 3 Yrotation Xrotation Zrotation
  JOINT Chest2
  {
   OFFSET 0.000000 9.601200 -0.005300
   CHANNELS 3 Yrotation Xrotation Zrotation
   JOINT Chest3
   {
    OFFSET 0.000000 9.561800 0.000000
    CHANNELS 3 Yrotation Xrotation Zrotation
    JOINT Chest4
    {
     OFFSET 0.000000 9.552100 0.000000
     CHANNELS 3 Yrotation Xrotation Zrotation
     JOINT Neck
     {
      OFFSET 0.000000 14.453000 0.000000
      CHANNELS 3 Yrotation Xrotation Zrotation
      JOINT Head
      {
       OFFSET 0.000000 8.936500 -0.011300
       CHANNELS 3 Yrotation Xrotation Zrotation
       End Site
       {
        OFFSET 0.000000 17.073600 -0.006000
       }
      }
     }
     JOINT RightCollar
     {
      OFFSET -2.921100 9.558500 0.000000
      CHANNELS 3 Yrotation Xrotation Zrotation
      JOINT RightShoulder
      {
       OFFSET -13.519700 0.000000 0.000000
       CHANNELS 3 Yrotation Xrotation Zrotation
       JOINT RightElbow
       {
        OFFSET 0.000000 -29.696600 0.000000
        CHANNELS 3 Yrotation Xrotation Zrotation
        JOINT RightWrist
        {
         OFFSET 0.000000 -24.004700 0.000000
         CHANNELS 3 Yrotation Xrotation Zrotation
         End Site
         {
          OFFSET 0.000000 -17.728500 0.000000
         }
        }
       }
      }
     }
     JOINT LeftCollar
     {
      OFFSET 2.921100 9.558500 0.000000
      CHANNELS 3 Yrotation Xrotation Zrotation
      JOINT LeftShoulder
      {
       OFFSET 13.519700 0.000000 0.000000
       CHANNELS 3 Yrotation Xrotation Zrotation
       JOINT LeftElbow
       {
        OFFSET 0.000000 -29.696600 0.000000
        CHANNELS 3 Yrotation Xrotation Zrotation
        JOINT LeftWrist
        {
         OFFSET 0.000000 -24.004700 0.000000
         CHANNELS 3 Yrotation Xrotation Zrotation
         End Site
         {
          OFFSET 0.000000 -17.728500 0.000000
         }
        }
       }
      }
     }
    }
   }
  }
 }
 JOINT RightHip
 {
  OFFSET -7.771700 -0.012900 -0.001300
  CHANNELS 3 Yrotation Xrotation Zrotation
  JOINT RightKnee
  {
   OFFSET 0.000000 -40.869800 0.001200
   CHANNELS 3 Yrotation Xrotation Zrotation
   JOINT RightAnkle
   {
    OFFSET 0.000000 -39.717900 0.002100
    CHANNELS 3 Yrotation Xrotation Zrotation
    JOINT RightToe
    {
     OFFSET 0.000000 -4.965400 11.033500
     CHANNELS 3 Yrotation Xrotation Zrotation
     End Site
     {
      OFFSET 0.000000 -1.423100 5.872300
     }
    }
   }
  }
 }
 JOINT LeftHip
 {
  OFFSET 7.771700 -0.012900 -0.001300
  CHANNELS 3 Yrotation Xrotation Zrotation
  JOINT LeftKnee
  {
   OFFSET 0.000000 -40.869800 0.001200
   CHANNELS 3 Yrotation Xrotation Zrotation
   JOINT LeftAnkle
   {
    OFFSET 0.000000 -39.717900 0.002100
    CHANNELS 3 Yrotation Xrotation Zrotation
    JOINT LeftToe
    {
     OFFSET 0.000000 -4.965400 11.033500
     CHANNELS 3 Yrotation Xrotation Zrotation
     End Site
     {
      OFFSET 0.000000 -1.423100 5.872300
     }
    }
   }
  }
 }
}
MOTION
Frames: 14
Frame Time: 0.008333
0.000000 85.388000 0.000000 0.000000 -5.767877 0.000000 0.000000 11.653817 0.000000 0.000000 -5.885947 0.000000 0.000000 -0.000000 0.000000 0.000000 -0.000000 0.000000 0.000000 12.528835 0.000000 0.000000 0.711642 0.000000 0.000000 -0.000000 0.000000 0.000000 0.000000 -90.000000 0.000000 -2.309062 0.000000 0.000000 2.309062 0.000000 0.000000 -0.000000 0.000000 0.000000 -0.000000 90.000000 0.000000 -2.309062 0.000000 0.000000 2.309062 0.000000 0.000000 8.520406 0.000000 0.000000 1.905762 0.000000 -0.000000 -4.658285 0.000000 0.000000 -0.000000 0.000000 0.000000 8.520406 0.000000 0.000000 1.905762 0.000000 -0.000000 -4.658285 0.000000 0.000000 -0.000000 0.000000
-74.629395 57.519706 5.626125 160.932160 -8.057635 0.286740 2.652973 7.613849 0.729484 0.118702 0.362280 -0.004310 0.201807 0.653775 -0.006238 2.305884 7.209472 0.054746 0.773909 16.693057 -1.373043 1.910008 -4.763376 -2.812201 2.556933 7.546039 1.526262 -2.349894 -8.282663 -11.016009 -74.909696 -81.118975 104.924575 -1.589998 9.573022 -25.857280 -6.616493 8.206693 -2.962575 15.648300 -5.892485 5.203080 107.576467 -78.679652 -131.783159 -2.099615 9.769766 12.946839 -15.115474 -63.983796 8.436863 -34.813165 72.383609 -35.574512 -2.403716 -7.300033 -1.835488 -0.283308 0.723947 -0.127278 1.455950 -66.521924 15.772224 41.958833 65.029113 35.090646 -18.018084 -9.348261 3.883744 -0.162707 -0.941281 -0.088040
-74.630828 57.518470 5.627121 160.922236 -8.061472 0.289630 2.663325 7.612798 0.728107 0.121862 0.355904 -0.004061 0.199559 0.654639 -0.006971 2.308144 7.206852 0.054057 0.772467 16.704969 -1.372678 1.907940 -4.746453 -2.811373 2.566259 7.549720 1.534356 -2.355384 -8.280030 -11.021382 -75.071346 -81.127930 105.102828 -1.609291 9.591755 -25.876610 -6.618119 8.212070 -2.966800 15.617808 -5.941076 5.207782 107.442980 -78.696092 -131.622553 -2.105432 9.750794 12.941090 -15.107639 -63.982327 8.435166 -34.783628 72.385775 -35.545390 -2.413324 -7.293372 -1.840016 -0.281976 0.722781 -0.126192 1.470937 -66.519126 15.768158 41.959086 65.027152 35.090781 -18.023706 -9.327709 3.878086 -0.172611 -0.932832 -0.082647
-74.633539 57.516942 5.628533 160.932542 -8.062394 0.294763 2.657307 7.601444 0.722273 0.119962 0.360192 -0.003734 0.204335 0.639174 -0.007208 2.302592 7.221242 0.054291 0.770976 16.713757 -1.372137 1.905148 -4.723240 -2.813733 2.586456 7.546597 1.540414 -2.343392 -8.295017 -11.031637 -75.078765 -81.125139 105.091071 -1.614126 9.586607 -25.869034 -6.618111 8.214132 -2.971098 15.604161 -5.956704 5.211858 107.738632 -78.675311 -131.907250 -2.088235 9.787914 12.936823 -15.109832 -63.987777 8.421771 -34.774246 72.393342 -35.535849 -2.417985 -7.289878 -1.842451 -0.281610 0.719561 -0.125740 1.487937 -66.515764 15.743584 41.940508 65.015540 35.072685 -18.043821 -9.302829 3.867919 -0.170093 -0.930231 -0.073986
-74.636294 57.515081 5.631041 160.949991 -8.058278 0.295242 2.643506 7.587378 0.720396 0.116982 0.367623 -0.004276 0.204326 0.636043 -0.007451 2.302190 7.224087 0.054472 0.771009 16.717115 -1.374279 1.901424 -4.694269 -2.814680 2.616098 7.520625 1.551320 -2.310756 -8.311391 -11.056705 -74.967837 -81.109073 104.937632 -1.615928 9.583933 -25.866353 -6.616916 8.197725 -2.984127 15.591276 -5.962973 5.226734 107.830547 -78.667964 -131.990490 -2.085006 9.786014 12.929764 -15.123173 -63.996537 8.416153 -34.773945 72.398241 -35.534496 -2.420408 -7.290146 -1.841981 -0.277857 0.719889 -0.126314 1.487831 -66.518239 15.730771 41.930361 64.997973 35.060769 -18.076398 -9.274098 3.856584 -0.145710 -0.925631 -0.062367
-74.638559 57.513624 5.629708 160.952093 -8.077587 0.300326 2.641355 7.595028 0.715470 0.116757 0.367492 -0.004361 0.203893 0.641914 -0.007217 2.298863 7.217024 0.051314 0.771351 16.730182 -1.374164 1.903727 -4.682005 -2.812893 2.631895 7.518135 1.558487 -2.289236 -8.318753 -11.066285 -75.009621 -81.108831 104.963095 -1.619459 9.588534 -25.859995 -6.613033 8.208590 -2.984024 15.568240 -5.999802 5.225982 107.753403 -78.676521 -131.892723 -2.085603 9.769446 12.920482 -15.109299 -63.982444 8.397635 -34.771893 72.403920 -35.534296 -2.433843 -7.291315 -1.842326 -0.259030 0.719828 -0.124255 1.507419 -66.495453 15.709558 41.919091 64.992374 35.050344 -18.080821 -9.261681 3.851996 -0.134515 -0.916365 -0.057879
-74.639240 57.511937 5.629559 160.951544 -8.093251 0.291797 2.645915 7.600513 0.722729 0.116655 0.367116 -0.004521 0.203816 0.641082 -0.007299 2.299520 7.212588 0.049248 0.770425 16.744336 -1.372516 1.902051 -4.668593 -2.808556 2.634524 7.525516 1.566061 -2.267289 -8.328330 -11.072308 -75.034572 -81.108863 104.980878 -1.624592 9.584838 -25.858844 -6.618278 8.210363 -2.986988 15.531708 -6.053213 5.233535 107.562338 -78.694603 -131.667603 -2.081992 9.772837 12.920282 -15.114960 -63.967456 8.403312 -34.771833 72.408277 -35.533582 -2.423078 -7.291610 -1.843225 -0.265736 0.719069 -0.123156 1.482560 -66.480188 15.733446 41.924811 64.989669 35.051631 -18.052442 -9.246254 3.853752 -0.167003 -0.912840 -0.064130
-74.644949 57.509907 5.629535 160.962466 -8.097831 0.306870 2.633627 7.593952 0.706036 0.116431 0.366775 -0.004459 0.203593 0.640595 -0.007438 2.296766 7.210002 0.048508 0.770953 16.758145 -1.370793 1.898919 -4.622336 -2.798165 2.639259 7.534046 1.568008 -2.260235 -8.327318 -11.073942 -75.122614 -81.109234 105.072575 -1.602348 9.576758 -25.835687 -6.618118 8.208530 -2.995558 15.513851 -6.069940 5.240772 107.602307 -78.689625 -131.698027 -2.076577 9.798211 12.924845 -15.090965 -63.971219 8.358664 -34.753613 72.417691 -35.518485 -2.420389 -7.301137 -1.835671 -0.275592 0.727086 -0.127638 1.505139 -66.476667 15.702331 41.909773 64.993020 35.026701 -18.075652 -9.212993 3.860774 -0.127672 -0.918445 -0.059747
-74.648014 57.507887 5.629464 160.968768 -8.106774 0.304899 2.629656 7.587108 0.704298 0.116221 0.366057 -0.004567 0.203053 0.639629 -0.007614 2.295355 7.195433 0.042428 0.772496 16.782559 -1.361645 1.895156 -4.595508 -2.787583 2.645106 7.551844 1.578939 -2.231732 -8.334086 -11.081004 -75.128789 -81.106355 105.066311 -1.602931 9.585333 -25.842224 -6.622405 8.222832 -2.996158 15.497721 -6.088352 5.243314 107.596877 -78.689622 -131.681405 -2.077747 9.794551 12.927046 -15.088073 -63.964484 8.347553 -34.747414 72.420985 -35.512273 -2.418575 -7.303771 -1.830308 -0.282074 0.729977 -0.130324 1.487573 -66.472161 15.715198 41.911498 64.999188 35.013456 -18.045265 -9.182370 3.877660 -0.135303 -0.926737 -0.066206
-74.650245 57.505851 5.629174 160.977033 -8.117036 0.295954 2.624520 7.580831 0.708720 0.116252 0.365907 -0.004755 0.203097 0.639136 -0.007737 2.295105 7.202368 0.043926 0.766122 16.780873 -1.363454 1.897585 -4.575039 -2.778293 2.662389 7.537150 1.578813 -2.221885 -8.325315 -11.079786 -75.174594 -81.120225 105.117851 -1.616412 9.594407 -25.866309 -6.626269 8.214026 -3.002105 15.493113 -6.084575 5.252036 107.792376 -78.656559 -131.890295 -2.075129 9.807480 12.926484 -15.100324 -63.954630 8.355249 -34.750095 72.423137 -35.517713 -2.421721 -7.305097 -1.824536 -0.283873 0.730423 -0.131032 1.454503 -66.464867 15.741654 41.913410 65.001342 35.003507 -18.014342 -9.159592 3.887690 -0.162773 -0.937248 -0.071217
-74.654458 57.503993 5.626728 160.980608 -8.133768 0.301325 2.620369 7.583675 0.698793 0.116044 0.365415 -0.004904 0.202902 0.638510 -0.007973 2.293037 7.184187 0.034013 0.771291 16.808411 -1.349363 1.897183 -4.560865 -2.771353 2.671070 7.560606 1.593965 -2.188605 -8.338551 -11.100142 -75.119018 -81.106960 105.040002 -1.610635 9.594396 -25.862493 -6.624157 8.219611 -3.003428 15.487242 -6.072179 5.267935 107.864061 -78.645880 -131.966995 -2.072595 9.820933 12.932642 -15.074792 -63.942056 8.325507 -34.751719 72.426718 -35.518223 -2.434980 -7.311947 -1.823870 -0.273505 0.734668 -0.127168 1.470411 -66.455332 15.729944 41.941548 65.012068 35.015851 -18.027347 -9.136521 3.910880 -0.164605 -0.941909 -0.077097
-74.656112 57.502380 5.623552 160.994337 -8.157737 0.291324 2.617514 7.595218 0.703058 0.119286 0.358203 -0.007999 0.198381 0.644504 -0.004904 2.286124 7.185635 0.035583 0.770841 16.815313 -1.345289 1.895155 -4.544946 -2.762650 2.671206 7.564697 1.597988 -2.182993 -8.337754 -11.103283 -75.145058 -81.112698 105.074919 -1.606233 9.593098 -25.854863 -6.623848 8.216763 -3.003936 15.458131 -6.103875 5.267730 107.794601 -78.654127 -131.883172 -2.083139 9.774103 12.912418 -15.086455 -63.920909 8.322152 -34.751077 72.441356 -35.517359 -2.441269 -7.314908 -1.817532 -0.268718 0.728733 -0.127866 1.439684 -66.435358 15.750279 41.962893 65.012315 35.030071 -18.018384 -9.121797 3.915463 -0.178148 -0.936464 -0.077518
-74.659393 57.500715 5.621169 161.000294 -8.172192 0.290001 2.616789 7.600637 0.700745 0.118606 0.359228 -0.008040 0.202703 0.635125 -0.009094 2.278860 7.192945 0.039098 0.770034 16.820701 -1.341346 1.894896 -4.532610 -2.755166 2.670803 7.570790 1.603315 -2.176427 -8.340484 -11.107870 -75.172540 -81.116076 105.112160 -1.610720 9.595967 -25.858261 -6.623671 8.219910 -3.001198 15.452167 -6.108240 5.270093 107.846070 -78.642862 -131.942675 -2.082562 9.775389 12.909298 -15.075611 -63.911964 8.302058 -34.756364 72.450501 -35.520828 -2.438064 -7.311923 -1.810444 -0.273275 0.722930 -0.131557 1.432264 -66.422155 15.752545 41.979296 65.011402 35.038978 -18.020950 -9.109296 3.921118 -0.201724 -0.933774 -0.081008
-74.663406 57.499102 5.619736 161.006405 -8.178593 0.291617 2.616106 7.599682 0.695401 0.117185 0.357483 -0.009631 0.200146 0.640305 -0.005814 2.277487 7.188024 0.036074 0.769730 16.824670 -1.337425 1.886374 -4.520270 -2.741343 2.669673 7.575971 1.608863 -2.176657 -8.346073 -11.114394 -75.148661 -81.109199 105.096179 -1.605645 9.596933 -25.850398 -6.624073 8.214285 -3.002478 15.447783 -6.105384 5.277697 107.848861 -78.640173 -131.946757 -2.082448 9.779913 12.908957 -15.071738 -63.907852 8.289485 -34.755031 72.453504 -35.519897 -2.442382 -7.316166 -1.809525 -0.267038 0.726482 -0.128555 1.441956 -66.419565 15.746500 41.973132 65.016440 35.027292 -18.054386 -9.081136 3.925412 -0.181121 -0.941065 -0.075663
